<svg width="360" height="154" viewBox="0 0 360 154" fill="none" xmlns="http://www.w3.org/2000/svg">
<g clip-path="url(#clip0_2_765)">
<mask id="mask0_2_765" style="mask-type:luminance" maskUnits="userSpaceOnUse" x="0" y="0" width="360" height="154">
<path d="M360 0H0V154H360V0Z" fill="white"/>
</mask>
<g mask="url(#mask0_2_765)">
<path d="M130.95 112.352H118.982V98.4H108.55V112.352H100.038V95.2H89.6062V120.544H108.358V140H118.982V120.544H130.95V112.352ZM155.781 108.896C151.749 108.896 148.421 110.048 145.861 112.16L146.245 104.16H168.901V95.2H137.797L137.093 120.224H147.333C148.805 118.368 150.917 117.472 153.477 117.472C157.893 117.472 160.965 120.16 160.965 124.512C160.965 128.736 158.021 131.616 153.477 131.616C148.933 131.616 145.861 128.8 145.669 124.064H134.725C134.597 134.048 142.213 140.64 153.285 140.64C164.421 140.64 171.909 133.984 171.909 124.256C171.909 114.976 165.189 108.896 155.781 108.896ZM179.757 140H189.933V105.952L190.317 105.888L199.661 136.16H208.941L218.349 105.888L218.733 105.952V140H228.909V95.2H212.781L204.461 125.152H204.205L195.885 95.2H179.757V140ZM270.996 113.824H258.708V101.664H249.94V113.824H237.716V122.72H249.94V134.88H258.708V122.72H270.996V113.824Z" fill="#050038"/>
</g>
</g>
<defs>
<clipPath id="clip0_2_765">
<rect width="360" height="154" fill="white"/>
</clipPath>
</defs>
</svg>
