<svg width="360" height="154" viewBox="0 0 360 154" fill="none" xmlns="http://www.w3.org/2000/svg">
<g clip-path="url(#clip0_2_759)">
<mask id="mask0_2_759" style="mask-type:luminance" maskUnits="userSpaceOnUse" x="0" y="0" width="360" height="154">
<path d="M360 0H0V154H360V0Z" fill="white"/>
</mask>
<g mask="url(#mask0_2_759)">
<path d="M78.0695 140H88.2455V95.2001H78.3255L78.1975 96.8001C77.9415 100.512 76.2135 102.24 72.4375 102.432L67.1255 102.688V110.88H78.0695V140ZM119.635 140.64C133.587 140.64 144.019 130.784 144.019 117.6C144.019 104.48 133.587 94.5601 119.635 94.5601C105.683 94.5601 95.2505 104.48 95.2505 117.6C95.2505 130.784 105.683 140.64 119.635 140.64ZM119.635 131.104C111.891 131.104 106.451 125.536 106.451 117.6C106.451 109.728 111.891 104.16 119.635 104.16C127.379 104.16 132.819 109.728 132.819 117.6C132.819 125.536 127.379 131.104 119.635 131.104ZM173.697 140.64C187.649 140.64 198.081 130.784 198.081 117.6C198.081 104.48 187.649 94.5601 173.697 94.5601C159.745 94.5601 149.313 104.48 149.313 117.6C149.313 130.784 159.745 140.64 173.697 140.64ZM173.697 131.104C165.953 131.104 160.513 125.536 160.513 117.6C160.513 109.728 165.953 104.16 173.697 104.16C181.441 104.16 186.881 109.728 186.881 117.6C186.881 125.536 181.441 131.104 173.697 131.104ZM227.76 140.64C241.712 140.64 252.144 130.784 252.144 117.6C252.144 104.48 241.712 94.5601 227.76 94.5601C213.808 94.5601 203.376 104.48 203.376 117.6C203.376 130.784 213.808 140.64 227.76 140.64ZM227.76 131.104C220.016 131.104 214.576 125.536 214.576 117.6C214.576 109.728 220.016 104.16 227.76 104.16C235.504 104.16 240.944 109.728 240.944 117.6C240.944 125.536 235.504 131.104 227.76 131.104ZM292.965 113.824H280.677V101.664H271.909V113.824H259.685V122.72H271.909V134.88H280.677V122.72H292.965V113.824Z" fill="#050038"/>
</g>
</g>
<defs>
<clipPath id="clip0_2_759">
<rect width="360" height="154" fill="white"/>
</clipPath>
</defs>
</svg>
